<svg width="24" height="24" viewBox="0 0 24 24" fill="none" xmlns="http://www.w3.org/2000/svg">
<path fill-rule="evenodd" clip-rule="evenodd" d="M9.2016 3.51617H12.7943L15.7395 12.1677L11.1501 12.167L12.295 15.602L8.17444 10.7258H12.5171L9.2016 3.51617ZM6.02017 9.71716C5.89218 9.98632 5.91844 10.2979 6.12121 10.53L16.0346 22.2616L13.1507 13.6093L16.7106 13.6099C16.9423 13.6099 17.1678 13.503 17.312 13.324C17.4561 13.1382 17.5217 12.9114 17.4315 12.6636L13.9098 2.31854C13.8601 2.17245 13.7229 2.07422 13.5686 2.07422H8.14896C7.89972 2.07422 7.65701 2.20207 7.51555 2.40798C7.38292 2.59242 7.34176 2.8778 7.42798 3.11062L10.2668 9.2838H6.70727C6.41357 9.2838 6.14681 9.45203 6.02017 9.71716Z" fill="#2B2C30"/>
</svg>
