<svg width="8" height="15" viewBox="0 0 8 15" fill="none" xmlns="http://www.w3.org/2000/svg">
  <path fill-rule="evenodd" clip-rule="evenodd" d="M2.26123 1.5L4.75279 1.5L6.7953 7.49989L3.61249 7.49937L4.40651 9.88156L1.54889 6.49986L4.56051 6.49986L2.26123 1.5ZM0.054894 5.8004C-0.0338674 5.98706 -0.015656 6.20312 0.124969 6.36413L6.99996 14.5L4.99997 8.4996L7.46872 8.5C7.62942 8.5 7.78581 8.42586 7.88578 8.30173C7.98575 8.17293 8.03122 8.01562 7.96872 7.84375L5.5264 0.669434C5.49191 0.568122 5.39676 0.5 5.28974 0.5L1.53122 0.499999C1.35837 0.499999 1.19005 0.588666 1.09195 0.731466C0.999968 0.859374 0.971422 1.05728 1.03122 1.21875L2.99997 5.49986L0.531402 5.49986C0.327718 5.49986 0.142721 5.61653 0.054894 5.8004Z" fill="#6A6D75"/>
</svg>