<svg width="10" height="15" viewBox="0 0 10 15" fill="none" xmlns="http://www.w3.org/2000/svg">
  <path fill-rule="evenodd" clip-rule="evenodd" d="M10 0.75C10 0.611929 9.88807 0.5 9.75 0.5L0.250001 0.499999C0.11193 0.499999 9.43889e-07 0.611928 9.31819e-07 0.749999L8.44396e-07 1.75C8.32325e-07 1.88807 0.11193 2 0.250001 2L1 2L1 2.5C1 4.73362 1.95744 6.65802 3.33576 7.53125C1.97031 8.39632 1.01792 10.293 1.00025 12.5L1 13.0312L0.25 13.0312C0.111929 13.0312 -1.51627e-07 13.1432 -1.63698e-07 13.2812L-2.48389e-07 14.25C-2.60459e-07 14.3881 0.111929 14.5 0.25 14.5L9.75 14.5C9.88807 14.5 10 14.3881 10 14.25L10 13.2812C10 13.1432 9.88807 13.0312 9.75 13.0312L9 13.0312L9 12.5L8.99975 12.5C8.98208 10.293 8.02969 8.39632 6.66424 7.53125C8.04256 6.65802 9 4.73363 9 2.5L9 2L9.75 2C9.88807 2 10 1.88807 10 1.75L10 0.75ZM7.5 2.5C7.5 3.74672 7.13238 4.81393 6.61295 5.5322C6.09216 6.25235 5.50267 6.53125 5 6.53125C4.49733 6.53125 3.90784 6.25235 3.38705 5.5322C2.86762 4.81393 2.5 3.74672 2.5 2.5L2.5 2L7.5 2L7.5 2.5ZM7.5 12.5625L7.5 13.0312L2.5 13.0312L2.5 12.5625C2.5 11.3158 2.86762 10.2486 3.38705 9.5303C3.90784 8.81015 4.49733 8.53125 5 8.53125C5.50267 8.53125 6.09216 8.81015 6.61295 9.5303C7.13238 10.2486 7.5 11.3158 7.5 12.5625Z" fill="#6A6D75"/>
</svg>