<svg width="24" height="24" viewBox="0 0 24 24" fill="none" xmlns="http://www.w3.org/2000/svg">
<path fill-rule="evenodd" clip-rule="evenodd" d="M5.35243 22.2617C5.15334 22.2617 4.99194 22.1003 4.99194 21.9012V21.1803C4.99194 20.9812 5.15334 20.8198 5.35243 20.8198H6.4339V19.3778C6.4339 16.157 7.81448 13.3821 9.80196 12.123C7.83304 10.8756 6.45974 8.14062 6.43426 4.95826H6.4339V3.5163H5.35243C5.15334 3.5163 4.99194 3.3549 4.99194 3.15581V2.43483C4.99194 2.23574 5.15334 2.07435 5.35243 2.07435H19.051C19.2501 2.07435 19.4115 2.23574 19.4115 2.43483V3.15581C19.4115 3.3549 19.2501 3.5163 19.051 3.5163H17.9695V4.95826C17.9441 8.14062 16.5704 10.8756 14.6015 12.123C16.589 13.3821 17.9695 16.157 17.9695 19.3778V20.8198H19.051C19.2501 20.8198 19.4115 20.9812 19.4115 21.1803V21.9012C19.4115 22.1003 19.2501 22.2617 19.051 22.2617H5.35243ZM16.5276 4.86813C16.5276 6.80076 15.959 8.49133 15.1117 9.66291C14.2632 10.8363 13.2158 11.402 12.2017 11.402C11.1876 11.402 10.1403 10.8363 9.29169 9.66291C8.44445 8.49133 7.87585 6.80076 7.87585 4.86813V3.5163H16.5276V4.86813ZM16.5276 20.8198V19.3778C16.5276 17.4452 15.959 15.7546 15.1117 14.583C14.2632 13.4096 13.2158 12.8439 12.2017 12.8439C11.1876 12.8439 10.1403 13.4096 9.29169 14.583C8.44445 15.7546 7.87585 17.4452 7.87585 19.3778V20.8198H16.5276Z" fill="#2B2C30"/>
</svg>
