<svg width="24" height="24" viewBox="0 0 24 24" fill="none" xmlns="http://www.w3.org/2000/svg">
<path d="M13.7167 19.3785L3.98354 19.3785C3.78444 19.3785 3.62305 19.2171 3.62305 19.018V18.2971C3.62305 18.098 3.78444 17.9366 3.98354 17.9366L13.7167 17.9366L13.7167 15.4139C13.7167 15.0927 14.105 14.9319 14.3321 15.159L17.9229 18.4026C17.9933 18.473 18.0426 18.5653 18.0426 18.6575C18.0426 18.7498 17.9933 18.8421 17.9229 18.9124L14.3321 22.1554C14.105 22.3825 13.7167 22.2217 13.7167 21.9005V19.3785Z" fill="#2B2C30"/>
<path d="M18.0426 13.6107L3.98354 13.6107C3.78444 13.6107 3.62305 13.4493 3.62305 13.2502L3.62305 12.5292C3.62305 12.3301 3.78444 12.1688 3.98354 12.1688L18.0426 12.1688L18.0426 9.64605C18.0426 9.32489 18.4309 9.16405 18.658 9.39115L22.2487 12.6348C22.3191 12.7052 22.3685 12.7975 22.3685 12.8897C22.3685 12.982 22.3191 13.0742 22.2487 13.1446L18.658 16.3876C18.4309 16.6147 18.0426 16.4539 18.0426 16.1327V13.6107Z" fill="#2B2C30"/>
<path d="M3.98354 7.8436L13.7167 7.8436V10.3656C13.7167 10.6867 14.105 10.8476 14.3321 10.6205L17.9229 7.37752C17.9933 7.30713 18.0426 7.21487 18.0426 7.12262C18.0426 7.03036 17.9933 6.9381 17.9229 6.86771L14.3321 3.62404C14.105 3.39694 13.7167 3.55778 13.7167 3.87894L13.7167 6.40164L3.98354 6.40164C3.78444 6.40164 3.62305 6.56304 3.62305 6.76213V7.48311C3.62305 7.6822 3.78444 7.8436 3.98354 7.8436Z" fill="#2B2C30"/>
</svg>
