<svg width="16" height="17" viewBox="0 0 16 17" fill="none" xmlns="http://www.w3.org/2000/svg">
  <path d="M9 13.5005L2.25 13.5005C2.11193 13.5005 2 13.3886 2 13.2505L2 12.7505C2 12.6124 2.11193 12.5005 2.25 12.5005L9 12.5005L9 10.751C9 10.5283 9.26928 10.4167 9.42678 10.5742L11.917 12.8237C11.9658 12.8725 12 12.9365 12 13.0005C12 13.0645 11.9658 13.1285 11.917 13.1773L9.42678 15.4263C9.26929 15.5838 9 15.4722 9 15.2495V13.5005Z" fill="#2B2C30"/>
  <path d="M12 9.5005H2.25C2.11193 9.5005 2 9.38857 2 9.2505L2 8.7505C2 8.61243 2.11193 8.5005 2.25 8.5005L12 8.5005L12 6.751C12 6.52827 12.2693 6.41673 12.4268 6.57422L14.917 8.82372C14.9658 8.87254 15 8.93652 15 9.0005C15 9.06448 14.9658 9.12846 14.917 9.17727L12.4268 11.4263C12.2693 11.5838 12 11.4722 12 11.2495V9.5005Z" fill="#2B2C30"/>
  <path d="M2.25 5.50099H9V7.24999C9 7.47272 9.26929 7.58426 9.42678 7.42677L11.917 5.17776C11.9658 5.12895 12 5.06497 12 5.00099C12 4.93701 11.9658 4.87303 11.917 4.82421L9.42678 2.57471C9.26928 2.41722 9 2.52877 9 2.75149L9 4.50099H2.25C2.11193 4.50099 2 4.61292 2 4.75099V5.25099C2 5.38906 2.11193 5.50099 2.25 5.50099Z" fill="#2B2C30"/>
</svg>