<svg width="24" height="24" viewBox="0 0 24 24" fill="none" xmlns="http://www.w3.org/2000/svg">
<g clip-path="url(#clip0_12398_69372)">
<path d="M11.2113 22.1919C11.6023 22.2379 12.0001 22.2616 12.4034 22.2616C15.1964 22.2616 17.7245 21.1272 19.552 19.2939C21.3719 17.4682 22.4971 14.9495 22.4971 12.1679C22.4971 9.38635 21.3719 6.86757 19.552 5.04188C17.7245 3.20865 15.1964 2.07422 12.4034 2.07422C9.61035 2.07422 7.08228 3.20865 5.2548 5.04187C3.43483 6.86757 2.30969 9.38635 2.30969 12.1679C2.30969 12.6668 2.34589 13.1573 2.41581 13.6368C2.52409 13.6989 2.62604 13.7762 2.71854 13.8687L4.46626 15.6165C4.00656 14.5599 3.75165 13.3937 3.75165 12.1679C3.75165 9.7788 4.72003 7.61586 6.28568 6.05021C7.85134 4.48455 10.0143 3.51617 12.4034 3.51617C14.7925 3.51617 16.9554 4.48455 18.5211 6.05021C20.0867 7.61586 21.0551 9.7788 21.0551 12.1679C21.0551 14.557 20.0867 16.7199 18.5211 18.2856C16.9953 19.8114 14.9023 20.7699 12.5855 20.8178L11.2113 22.1919Z" fill="#2B2C30"/>
<path d="M13.6246 17.8062C16.2235 17.2459 18.1712 14.9344 18.1712 12.1679C18.1712 8.98243 15.5889 6.40008 12.4034 6.40008C9.2179 6.40008 6.63556 8.98243 6.63556 12.1679C6.63556 14.4617 7.97451 16.4427 9.91347 17.3721L10.5329 16.7526C10.7504 16.5352 11.02 16.4017 11.3015 16.3522C9.44611 15.8649 8.07752 14.1762 8.07752 12.1679C8.07752 9.7788 10.0143 7.84204 12.4034 7.84204C14.7925 7.84204 16.7292 9.7788 16.7292 12.1679C16.7292 14.557 14.7925 16.4938 12.4034 16.4938C12.3393 16.4938 12.2756 16.4924 12.2122 16.4896C12.3419 16.5563 12.4635 16.644 12.5721 16.7526L13.5918 17.7723C13.6029 17.7834 13.6139 17.7947 13.6246 17.8062Z" fill="#2B2C30"/>
<path d="M10.9614 12.1679C10.9614 12.9643 11.607 13.6099 12.4034 13.6099C13.1998 13.6099 13.8453 12.9643 13.8453 12.1679C13.8453 11.3715 13.1998 10.726 12.4034 10.726C11.607 10.726 10.9614 11.3715 10.9614 12.1679Z" fill="#2B2C30"/>
<path d="M11.2753 18.0468L8.05902 21.263L1.99572 15.1997C1.85494 15.059 1.62669 15.059 1.48591 15.1997L0.976105 15.7095C0.835325 15.8503 0.835325 16.0786 0.976105 16.2193L7.79981 23.0431C7.85727 23.1005 7.9293 23.1345 8.00401 23.1451C8.11455 23.1631 8.23186 23.1294 8.3171 23.0442L12.2949 19.0664C12.4357 18.9256 12.4357 18.6974 12.2949 18.5566L11.7851 18.0468C11.6443 17.906 11.416 17.906 11.2753 18.0468Z" fill="#2B2C30"/>
</g>
<defs>
<clipPath id="clip0_12398_69372">
<rect width="23.0713" height="23.0713" fill="white" transform="matrix(-1 0 0 1 23.939 0.632812)"/>
</clipPath>
</defs>
</svg>
