<svg width="15" height="16" viewBox="0 0 15 16" fill="none" xmlns="http://www.w3.org/2000/svg">
  <path d="M7.17329 14.4517C7.44442 14.4836 7.72029 14.5 8 14.5C9.93697 14.5 11.6902 13.7133 12.9576 12.4419C14.2197 11.1758 15 9.42902 15 7.5C15 5.57098 14.2197 3.82421 12.9576 2.55808C11.6902 1.28673 9.93697 0.5 8 0.499999C6.06303 0.499999 4.3098 1.28673 3.04244 2.55808C1.78028 3.8242 0.999998 5.57098 0.999997 7.5C0.999997 7.846 1.0251 8.18614 1.07359 8.51869C1.14868 8.56177 1.21938 8.61538 1.28354 8.67953L2.49558 9.89157C2.17678 9.15884 2 8.35006 2 7.5C2 5.84314 2.67157 4.34314 3.75736 3.25736C4.84315 2.17157 6.34315 1.5 8 1.5C9.65685 1.5 11.1569 2.17157 12.2426 3.25736C13.3284 4.34315 14 5.84314 14 7.5C14 9.15685 13.3284 10.6569 12.2426 11.7426C11.1845 12.8008 9.73299 13.4655 8.12629 13.4987L7.17329 14.4517Z" fill="#6A6D75"/>
  <path d="M8.84693 11.4102C10.6493 11.0216 12 9.41855 12 7.5C12 5.29086 10.2091 3.5 8 3.5C5.79086 3.5 4 5.29086 4 7.5C4 9.09074 4.92857 10.4646 6.27323 11.1091L6.70282 10.6795C6.85363 10.5287 7.04063 10.4361 7.23586 10.4018C5.94912 10.0639 5 8.89278 5 7.5C5 5.84314 6.34314 4.5 8 4.5C9.65685 4.5 11 5.84314 11 7.5C11 9.15685 9.65685 10.5 8 10.5C7.95558 10.5 7.91139 10.499 7.86744 10.4971C7.95735 10.5434 8.04171 10.6042 8.11704 10.6795L8.82414 11.3866C8.83189 11.3944 8.83949 11.4022 8.84693 11.4102Z" fill="#6A6D75"/>
  <path d="M7 7.5C7 8.05228 7.44771 8.5 8 8.5C8.55228 8.5 9 8.05228 9 7.5C9 6.94771 8.55228 6.5 8 6.5C7.44771 6.5 7 6.94771 7 7.5Z" fill="#6A6D75"/>
  <path d="M7.21765 11.577L4.98717 13.8075L0.782254 9.60258C0.684624 9.50495 0.526333 9.50495 0.428703 9.60258L0.0751487 9.95613C-0.0224818 10.0538 -0.0224818 10.2121 0.0751487 10.3097L4.8074 15.0419C4.84725 15.0818 4.89721 15.1054 4.94902 15.1127C5.02568 15.1252 5.10704 15.1018 5.16615 15.0427L7.92475 12.2841C8.02239 12.1865 8.02239 12.0282 7.92475 11.9306L7.5712 11.577C7.47357 11.4794 7.31528 11.4794 7.21765 11.577Z" fill="#6A6D75"/>
</svg>